<svg xmlns="http://www.w3.org/2000/svg" width="1060" height="918" viewBox="0 0 1060 918">
  <g id="Doctor" transform="translate(-508 -81)">
    <circle id="Ellipse_1" data-name="Ellipse 1" cx="459" cy="459" r="459" transform="translate(650 81)" fill="#e4e4e4"/>
    <g id="doctor-2" data-name="doctor" transform="translate(508 247)">
      <path id="Path_1" data-name="Path 1" d="M1030.78,515.1h-31.8a4.5,4.5,0,0,1-3.535-1.7,4.408,4.408,0,0,1-.863-3.746,86.534,86.534,0,0,0-.42-40,4.471,4.471,0,0,1,2.422-5.131c13.284-6.218,25.483-6.056,36.257.48a4.526,4.526,0,0,1,2.143,3.151,141.553,141.553,0,0,1,.259,43.08,4.491,4.491,0,0,1-4.463,3.871Z" transform="translate(-147.744 -156.069)" fill="#6c63ff"/>
      <path id="Path_2" data-name="Path 2" d="M1030.3,494.261h-24.318a2.281,2.281,0,1,1,0-4.562H1030.3a2.281,2.281,0,1,1,0,4.562Z" transform="translate(-147.744 -156.069)" fill="#fff"/>
      <path id="Path_3" data-name="Path 3" d="M1030.3,486.261h-24.318a2.281,2.281,0,1,1,0-4.562H1030.3a2.281,2.281,0,1,1,0,4.562Z" transform="translate(-147.744 -156.069)" fill="#fff"/>
      <circle id="Ellipse_2" data-name="Ellipse 2" cx="169" cy="169" r="169" transform="translate(77.148 17.839)" fill="#f2f2f2"/>
      <circle id="Ellipse_3" data-name="Ellipse 3" cx="32" cy="32" r="32" transform="translate(410.148 286.839)" fill="#f2f2f2"/>
      <circle id="Ellipse_4" data-name="Ellipse 4" cx="13" cy="13" r="13" transform="translate(590.148 396.839)" fill="#f2f2f2"/>
      <path id="Path_4" data-name="Path 4" d="M851.266,617.04c-5.482-41.892-31.73-83.034-71.8-96.422a194.659,194.659,0,0,1,.846,133.644c-6.038,16.659-14.487,34.559-8.6,51.271,3.663,10.4,12.51,18.317,22.375,23.24s20.794,7.229,31.585,9.489L827.8,740C844.662,701.263,856.748,658.932,851.266,617.04Z" transform="translate(-147.744 -156.069)" fill="#f2f2f2"/>
      <path id="Path_5" data-name="Path 5" d="M779.073,521.413a166.381,166.381,0,0,1,41.961,93.372c.774,7.452.911,15.079-.671,22.439a41.093,41.093,0,0,1-10.1,19.125c-4.574,5.091-9.843,9.768-13.1,15.882-3.433,6.444-3.52,13.742-1.1,20.549,2.964,8.328,8.743,15.094,14.624,21.515,6.53,7.129,13.426,14.43,16.243,23.918.341,1.15,2.105.553,1.764-.6-4.9-16.508-21.016-25.8-28.768-40.647-3.617-6.928-5.168-14.988-1.866-22.347,2.888-6.435,8.316-11.263,12.992-16.378,4.91-5.37,8.663-11.252,10.571-18.333,1.951-7.243,2.112-14.891,1.532-22.33a161.417,161.417,0,0,0-12.1-48.977,169.333,169.333,0,0,0-30.76-48.6c-.8-.886-2.02.524-1.223,1.4Z" transform="translate(-147.744 -156.069)" fill="#fff"/>
      <path id="Path_6" data-name="Path 6" d="M820.46,603.52a24.962,24.962,0,0,0,18.834-26.27c-.1-1.194-1.962-1.09-1.86.1a23.115,23.115,0,0,1-17.569,24.4c-1.164.285-.562,2.047.6,1.764Z" transform="translate(-147.744 -156.069)" fill="#fff"/>
      <path id="Path_7" data-name="Path 7" d="M812.923,654.074A48.113,48.113,0,0,1,791.261,626.5c-.345-1.148-2.109-.552-1.764.6a50.044,50.044,0,0,0,22.6,28.645c1.036.606,1.858-1.066.827-1.668Z" transform="translate(-147.744 -156.069)" fill="#fff"/>
      <path id="Path_8" data-name="Path 8" d="M801.933,552.547a14.13,14.13,0,0,1-13.394-.594c-1.028-.619-1.848,1.054-.827,1.668a15.834,15.834,0,0,0,14.816.69.962.962,0,0,0,.585-1.18.936.936,0,0,0-1.18-.585Z" transform="translate(-147.744 -156.069)" fill="#fff"/>
      <path id="Path_9" data-name="Path 9" d="M658.067,596.282c.631.4,1.262.809,1.894,1.229a186.085,186.085,0,0,1,23.911,18.423c.585.515,1.17,1.046,1.739,1.576a196.172,196.172,0,0,1,42.977,58.047A190.513,190.513,0,0,1,739.2,702.49c3.932,12.752,7.181,26.891,14.87,37.293a32.689,32.689,0,0,0,2.566,3.127l68.88-.441c.156-.08.313-.143.47-.223l2.751.108c-.114-.486-.242-.989-.356-1.475-.065-.282-.145-.565-.21-.847-.048-.188-.1-.377-.129-.549-.016-.063-.032-.125-.048-.173-.033-.173-.081-.33-.114-.486q-1.064-4.213-2.191-8.425c0-.016,0-.016-.016-.031-5.779-21.384-13.395-42.473-23.969-61.736-.318-.579-.636-1.175-.986-1.754a181.784,181.784,0,0,0-16.487-24.663,160.7,160.7,0,0,0-10.781-12.174,133.64,133.64,0,0,0-33.6-24.836c-24.788-12.885-53.422-17.7-79.773-9.563C659.4,595.849,658.741,596.057,658.067,596.282Z" transform="translate(-147.744 -156.069)" fill="#f2f2f2"/>
      <path id="Path_10" data-name="Path 10" d="M658.227,597.155a166.382,166.382,0,0,1,89.72,49.289c5.1,5.484,9.806,11.491,12.974,18.32a41.094,41.094,0,0,1,3.452,21.35c-.587,6.819-1.978,13.725-.9,20.568,1.139,7.212,5.463,13.092,11.5,17.068,7.38,4.865,16.068,6.788,24.63,8.374,9.506,1.76,19.408,3.438,27.37,9.318.965.712,2.014-.826,1.05-1.537-13.852-10.23-32.314-7.946-47.442-15.134-7.059-3.354-13.151-8.855-14.944-16.719-1.569-6.877-.141-14,.513-20.9.687-7.244.143-14.2-2.6-21-2.8-6.958-7.279-13.162-12.222-18.752a161.418,161.418,0,0,0-39.151-31.819,169.33,169.33,0,0,0-53.82-20.283c-1.174-.225-1.3,1.634-.131,1.858Z" transform="translate(-147.744 -156.069)" fill="#fff"/>
      <path id="Path_11" data-name="Path 11" d="M740.707,637.795a24.962,24.962,0,0,0-.779-32.314c-.8-.891-2.223.311-1.422,1.2a23.115,23.115,0,0,1,.663,30.061C738.411,637.672,739.953,638.718,740.707,637.795Z" transform="translate(-147.744 -156.069)" fill="#fff"/>
      <path id="Path_12" data-name="Path 12" d="M765.126,682.7a48.113,48.113,0,0,1-33.9-8.972c-.967-.709-2.017.829-1.051,1.538a50.045,50.045,0,0,0,35.291,9.265c1.192-.14.841-1.969-.344-1.83Z" transform="translate(-147.744 -156.069)" fill="#fff"/>
      <path id="Path_13" data-name="Path 13" d="M695.224,608.25a14.13,14.13,0,0,1-11.052,7.59c-1.193.125-.841,1.954.344,1.83a15.834,15.834,0,0,0,12.246-8.37.962.962,0,0,0-.244-1.294.936.936,0,0,0-1.294.243Z" transform="translate(-147.744 -156.069)" fill="#fff"/>
      <path id="Path_14" data-name="Path 14" d="M988.435,453.319l-9.315-90.164-2.459-37.108,26.072-4.714s3.9,25.51,7.32,40.481c3.371,14.773-4.49,89.526-4.7,91.5a12.685,12.685,0,1,1-16.92.008Z" transform="translate(-147.744 -156.069)" fill="#ffb8b8"/>
      <path id="Path_15" data-name="Path 15" d="M734.148,574.092H720.884l-6.31-51.16H734.15Z" fill="#ffb6b6"/>
      <path id="Path_16" data-name="Path 16" d="M885.274,743.019l-42.768,0v-.541a16.647,16.647,0,0,1,16.645-16.646h0l7.812-5.927,14.576,5.928h3.733Z" transform="translate(-147.744 -156.069)" fill="#2f2e41"/>
      <path id="Path_17" data-name="Path 17" d="M851.045,574.092H837.782l-6.31-51.16h19.576Z" fill="#ffb6b6"/>
      <path id="Path_18" data-name="Path 18" d="M1002.17,743.019l-42.768,0v-.541a16.647,16.647,0,0,1,16.645-16.646h0l7.812-5.927,14.576,5.928h3.733Z" transform="translate(-147.744 -156.069)" fill="#2f2e41"/>
      <path id="Path_19" data-name="Path 19" d="M978.616,456.351l11.156,105.98s14.851,106.117,12.062,120.759.7,16.734.7,16.734l-25.448-1.812s.7-9.064-3.486-13.248-2.092-16.734-2.092-16.734L922.14,495.4l-29.981,90.641s-4.881,99.706-5.578,101.1-2.789,20.22-2.789,20.22h-25.8s3.486-11.156-1.394-14.642-9.064-.7-4.881-6.972S857.3,671.8,855.9,668.312s-1.395-17.431-1.395-17.431,2.092-188.255,13.945-194.53S978.616,456.351,978.616,456.351Z" transform="translate(-147.744 -156.069)" fill="#2f2e41"/>
      <circle id="Ellipse_5" data-name="Ellipse 5" cx="27.439" cy="27.439" r="27.439" transform="translate(750.601 30.82)" fill="#ffb8b8"/>
      <path id="Path_20" data-name="Path 20" d="M1007.13,335.717,980.144,345.4l-8.219,2.945-6-76.627,20.589,10.919a.433.433,0,0,1,.091.09,55.712,55.712,0,0,1,8.862,13.149C1006.76,318.825,1007.13,335.717,1007.13,335.717Z" transform="translate(-147.744 -156.069)" fill="#3f3d56"/>
      <path id="Path_21" data-name="Path 21" d="M821.225,446.845s27.428-85.219,27.907-86.241c3.592-27.28,13.925-39.314,15.474-38.008l26.668,9.239s-7.932,25.119-13.3,40.039c-5.132,14.257-40.278,80.08-41.265,81.8a12.685,12.685,0,1,1-15.481-6.829Z" transform="translate(-147.744 -156.069)" fill="#ffb8b8"/>
      <path id="Path_22" data-name="Path 22" d="M904.084,276.648s-23.089-11.316-32.044,10.909c-5.865,14.988-8.642,21.526-12.558,37.138,0,0,23.535,3.531,31.082,16.831Z" transform="translate(-147.744 -156.069)" fill="#3f3d56"/>
      <path id="Path_23" data-name="Path 23" d="M988.1,467.9c-53.139,10.974-123.558-7.893-123.558-7.893l18.785-81.43-6.679-85.217c-.816-10.421,5.12-20.19,14.354-23.651l12.75-4.776,10.539-15.088,30.1.988,12.034,15.84,9.5,5.038,20.589,10.919.091.045v.045l-6.461,62.672-3.9,37.788s11.835,42.5,9.406,48.137-.317,2.909.272,5.917,2.392,3.2,2.664,9.125S988.1,467.9,988.1,467.9Z" transform="translate(-147.744 -156.069)" fill="#3f3d56"/>
      <path id="Path_24" data-name="Path 24" d="M955.55,204.557c-2.168-2.139,1.1-7.8.479-10.785-.707-3.42-4.476-3.52-5.375-6.895-.967-3.63-4.835-5.607-8.412-6.757a54.391,54.391,0,0,0-28.347-1.3,108.193,108.193,0,0,0-12.263,3.778c-2.768.974-.1-1.677-2.866-.7a4.345,4.345,0,0,0-2.6,1.722c-.5.941.173,2.445,1.22,2.255l-10.137,4.47,5.685,5.956c-2.694-.767-5.566,2.445-4.5,5.037a5.693,5.693,0,0,0,4.357,3.016c3.044.592.735,3.489,3.835,3.432s24.719-6.412,26.227-3.7c1.073,1.93.955,4.486,2.488,6.075,1.961,2.034,5.384,1.29,7.879-.034s5.026-3.144,7.834-2.827c2.931.331,5.147,5.747,5.869,8.607s.266,5.869-.193,8.782c-.6,3.826-6.644,7.653-7.247,11.479,6.7,1.854,13.9-4.045,16.546-14.3C955.765,215.379,960.17,209.116,955.55,204.557Z" transform="translate(-147.744 -156.069)" fill="#2f2e41"/>
      <path id="Path_25" data-name="Path 25" d="M528.991,560.913c-80.774,0-151.053-60.252-161.435-142.438l1.984-.251c10.254,81.171,79.677,140.684,159.452,140.688a161.357,161.357,0,0,0,20.268-1.279c87.991-11.116,150.529-91.74,139.414-179.726l1.984-.251c11.253,89.08-52.063,170.708-141.143,181.96a163.743,163.743,0,0,1-20.525,1.3Z" transform="translate(-147.744 -156.069)" fill="#3f3d56"/>
      <path id="Path_26" data-name="Path 26" d="M533.329,594.362h-31.8a4.5,4.5,0,0,1-3.535-1.7,4.408,4.408,0,0,1-.863-3.746,86.515,86.515,0,0,0-.52-40.4,4.477,4.477,0,0,1,1.951-4.874c11-6.816,22.983-6.6,36.628.652a4.551,4.551,0,0,1,2.368,3.275,141.56,141.56,0,0,1,.234,42.924A4.491,4.491,0,0,1,533.329,594.362Z" transform="translate(-147.744 -156.069)" fill="#6c63ff"/>
      <path id="Path_27" data-name="Path 27" d="M388.329,424.362h-31.8a4.5,4.5,0,0,1-3.535-1.7,4.408,4.408,0,0,1-.863-3.746,86.49,86.49,0,0,0-.555-40.536,4.509,4.509,0,0,1,1.749-4.738c16.354-11.762,29.232-11.42,38.279,1.016a4.519,4.519,0,0,1,.792,1.91,141.539,141.539,0,0,1,.4,43.925,4.491,4.491,0,0,1-4.46,3.872Z" transform="translate(-147.744 -156.069)" fill="#ccc"/>
      <path id="Path_28" data-name="Path 28" d="M518.469,564.513H507.528a2.281,2.281,0,1,1,0-4.562h10.94a2.281,2.281,0,0,1,0,4.562Z" transform="translate(-147.744 -156.069)" fill="#fff"/>
      <path id="Path_29" data-name="Path 29" d="M531.846,573.526H507.528a2.281,2.281,0,1,1,0-4.562h24.318a2.281,2.281,0,0,1,0,4.562Z" transform="translate(-147.744 -156.069)" fill="#fff"/>
      <path id="Path_30" data-name="Path 30" d="M378.469,392.513H367.528a2.281,2.281,0,1,1,0-4.562h10.94a2.281,2.281,0,0,1,0,4.562Z" transform="translate(-147.744 -156.069)" fill="#fff"/>
      <path id="Path_31" data-name="Path 31" d="M378.469,400.513H367.528a2.281,2.281,0,1,1,0-4.562h10.94a2.281,2.281,0,0,1,0,4.562Z" transform="translate(-147.744 -156.069)" fill="#fff"/>
      <path id="Path_32" data-name="Path 32" d="M378.469,408.513H367.528a2.281,2.281,0,1,1,0-4.562h10.94a2.281,2.281,0,0,1,0,4.562Z" transform="translate(-147.744 -156.069)" fill="#fff"/>
      <path id="Path_33" data-name="Path 33" d="M816.37,461.935H714.705a10.288,10.288,0,0,1-10.277-10.277V389.042a10.288,10.288,0,0,1,10.277-10.277H816.37a10.288,10.288,0,0,1,10.277,10.277v62.616a10.288,10.288,0,0,1-10.277,10.277Z" transform="translate(-147.744 -156.069)" fill="#e6e6e6"/>
      <path id="Path_34" data-name="Path 34" d="M775.977,453.869H721.852a9.636,9.636,0,0,1-9.625-9.625v-47.79a9.636,9.636,0,0,1,9.625-9.625h87.373a9.635,9.635,0,0,1,9.624,9.625V411A42.92,42.92,0,0,1,775.977,453.869Z" transform="translate(-147.744 -156.069)" fill="#fff"/>
      <path id="Path_35" data-name="Path 35" d="M800.508,413h-69.94a2.281,2.281,0,0,1,0-4.562h69.94a2.281,2.281,0,0,1,0,4.562Z" transform="translate(-147.744 -156.069)" fill="#6c63ff"/>
      <path id="Path_36" data-name="Path 36" d="M741.508,422.012h-10.94a2.281,2.281,0,1,1,0-4.562h10.941a2.281,2.281,0,1,1,0,4.562Z" transform="translate(-147.744 -156.069)" fill="#6c63ff"/>
      <path id="Path_37" data-name="Path 37" d="M760.885,431.026H730.568a2.281,2.281,0,1,1,0-4.562h30.318a2.281,2.281,0,0,1,0,4.562Z" transform="translate(-147.744 -156.069)" fill="#6c63ff"/>
      <circle id="Ellipse_6" data-name="Ellipse 6" cx="21.506" cy="21.506" r="21.506" transform="translate(531.631 199.942)" fill="#3f3d56"/>
      <path id="Path_38" data-name="Path 38" d="M457.431,213.919A56.086,56.086,0,0,1,567.488,235.6l-1.963-.386a54.086,54.086,0,1,0-106.131-20.91Z" transform="translate(-147.744 -156.069)" fill="#3f3d56"/>
      <path id="Path_39" data-name="Path 39" d="M478.728,249.3l-31.776,1.317a4.5,4.5,0,0,1-3.6-1.555,4.408,4.408,0,0,1-1.017-3.707,86.536,86.536,0,0,0-2.075-39.953,4.471,4.471,0,0,1,2.208-5.227c13.016-6.762,25.211-7.105,36.246-1.02a4.527,4.527,0,0,1,2.272,3.06,141.554,141.554,0,0,1,2.042,43.032,4.491,4.491,0,0,1-4.3,4.052Z" transform="translate(-147.744 -156.069)" fill="#6c63ff"/>
      <path id="Path_40" data-name="Path 40" d="M477.384,228.506l-24.3,1.006a2.281,2.281,0,1,1-.189-4.558l24.3-1.006a2.281,2.281,0,1,1,.189,4.558Z" transform="translate(-147.744 -156.069)" fill="#fff"/>
      <path id="Path_41" data-name="Path 41" d="M477.053,220.513l-24.3,1.006a2.281,2.281,0,0,1-.189-4.558l24.3-1.006a2.281,2.281,0,0,1,.189,4.558Z" transform="translate(-147.744 -156.069)" fill="#fff"/>
      <path id="Path_42" data-name="Path 42" d="M686.686,239.239H585.021a10.288,10.288,0,0,1-10.277-10.277V166.346a10.288,10.288,0,0,1,10.277-10.277H686.686a10.288,10.288,0,0,1,10.277,10.277v62.616A10.288,10.288,0,0,1,686.686,239.239Z" transform="translate(-147.744 -156.069)" fill="#e6e6e6"/>
      <path id="Path_43" data-name="Path 43" d="M646.293,231.174H592.167a9.636,9.636,0,0,1-9.625-9.624v-47.79a9.636,9.636,0,0,1,9.625-9.625H679.54a9.635,9.635,0,0,1,9.624,9.625V188.3a42.92,42.92,0,0,1-42.871,42.871Z" transform="translate(-147.744 -156.069)" fill="#fff"/>
      <path id="Path_44" data-name="Path 44" d="M670.824,190.3H600.883a2.281,2.281,0,1,1,0-4.562h69.94a2.281,2.281,0,0,1,0,4.562Z" transform="translate(-147.744 -156.069)" fill="#6c63ff"/>
      <path id="Path_45" data-name="Path 45" d="M611.824,199.317H600.883a2.281,2.281,0,1,1,0-4.562h10.94a2.281,2.281,0,1,1,0,4.562Z" transform="translate(-147.744 -156.069)" fill="#6c63ff"/>
      <path id="Path_46" data-name="Path 46" d="M631.2,208.33H600.883a2.281,2.281,0,1,1,0-4.562H631.2a2.281,2.281,0,1,1,0,4.562Z" transform="translate(-147.744 -156.069)" fill="#6c63ff"/>
      <circle id="Ellipse_7" data-name="Ellipse 7" cx="21.506" cy="21.506" r="21.506" transform="translate(391.199 89.565) rotate(-58.134)" fill="#3f3d56"/>
      <path id="Path_47" data-name="Path 47" d="M1051.34,743.931H755.865a.919.919,0,0,1,0-1.839h295.471a.919.919,0,1,1,0,1.839Z" transform="translate(-147.744 -156.069)" fill="#ccc"/>
      <path id="Path_48" data-name="Path 48" d="M282.072,406.5a94.031,94.031,0,0,1,175.9-66.538l-1.871.708a92.031,92.031,0,1,0-172.156,65.122Z" transform="translate(-147.744 -156.069)" fill="#3f3d56"/>
      <path id="Path_49" data-name="Path 49" d="M364.329,313.362h-31.8a4.5,4.5,0,0,1-3.535-1.7,4.408,4.408,0,0,1-.863-3.746,86.515,86.515,0,0,0-.5-40.309,4.462,4.462,0,0,1,2.058-4.937c11.521-6.706,23.823-6.5,36.565.61a4.512,4.512,0,0,1,2.293,3.234,141.561,141.561,0,0,1,.243,42.979,4.491,4.491,0,0,1-4.46,3.872Z" transform="translate(-147.744 -156.069)" fill="#6c63ff"/>
      <path id="Path_50" data-name="Path 50" d="M349.469,282.513H338.528a2.281,2.281,0,1,1,0-4.562h10.94a2.281,2.281,0,1,1,0,4.562Z" transform="translate(-147.744 -156.069)" fill="#fff"/>
      <path id="Path_51" data-name="Path 51" d="M362.846,291.526H338.528a2.281,2.281,0,0,1,0-4.562h24.318a2.281,2.281,0,1,1,0,4.562Z" transform="translate(-147.744 -156.069)" fill="#fff"/>
      <path id="Path_52" data-name="Path 52" d="M259.686,405.239H158.021a10.288,10.288,0,0,1-10.277-10.277V332.346a10.288,10.288,0,0,1,10.277-10.277H259.686a10.288,10.288,0,0,1,10.277,10.277v62.616a10.288,10.288,0,0,1-10.277,10.277Z" transform="translate(-147.744 -156.069)" fill="#e6e6e6"/>
      <path id="Path_53" data-name="Path 53" d="M219.293,397.174H165.167a9.636,9.636,0,0,1-9.625-9.624v-47.79a9.636,9.636,0,0,1,9.625-9.625H252.54a9.635,9.635,0,0,1,9.624,9.625V354.3A42.92,42.92,0,0,1,219.293,397.174Z" transform="translate(-147.744 -156.069)" fill="#fff"/>
      <path id="Path_54" data-name="Path 54" d="M243.824,356.3H173.883a2.281,2.281,0,0,1,0-4.562h69.94a2.281,2.281,0,1,1,0,4.562Z" transform="translate(-147.744 -156.069)" fill="#6c63ff"/>
      <path id="Path_55" data-name="Path 55" d="M184.824,365.317H173.883a2.281,2.281,0,1,1,0-4.562h10.941a2.281,2.281,0,1,1,0,4.562Z" transform="translate(-147.744 -156.069)" fill="#6c63ff"/>
      <path id="Path_56" data-name="Path 56" d="M204.2,374.33H173.883a2.281,2.281,0,1,1,0-4.562H204.2a2.281,2.281,0,0,1,0,4.562Z" transform="translate(-147.744 -156.069)" fill="#6c63ff"/>
      <circle id="Ellipse_8" data-name="Ellipse 8" cx="21.506" cy="21.506" r="21.506" transform="translate(104.2 253.566) rotate(-58.134)" fill="#3f3d56"/>
      <path id="Path_57" data-name="Path 57" d="M473.329,373.362h-31.8a4.5,4.5,0,0,1-3.535-1.7,4.408,4.408,0,0,1-.863-3.746,86.52,86.52,0,0,0-.48-40.24,4.489,4.489,0,0,1,2.124-4.978c15.45-8.844,27.683-8.6,37.4.747a4.441,4.441,0,0,1,1.279,2.476,141.556,141.556,0,0,1,.338,43.572,4.491,4.491,0,0,1-4.46,3.871Z" transform="translate(-147.744 -156.069)" fill="#ff6584"/>
      <path id="Path_58" data-name="Path 58" d="M460.469,343.513H449.528a2.281,2.281,0,1,1,0-4.562h10.94a2.281,2.281,0,0,1,0,4.562Z" transform="translate(-147.744 -156.069)" fill="#fff"/>
      <path id="Path_59" data-name="Path 59" d="M473.846,352.526H449.528a2.281,2.281,0,0,1,0-4.562h24.318a2.281,2.281,0,0,1,0,4.562Z" transform="translate(-147.744 -156.069)" fill="#fff"/>
    </g>
  </g>
</svg>
