<svg xmlns="http://www.w3.org/2000/svg" width="1146.327" height="918" viewBox="0 0 1146.327 918">
  <g id="User" transform="translate(-473 -81)">
    <g id="Doctor" transform="translate(-78)">
      <circle id="Ellipse_1" data-name="Ellipse 1" cx="459" cy="459" r="459" transform="translate(650 81)" fill="#e4e4e4"/>
    </g>
    <g id="undraw_Before_dawn_re_hp4m" transform="translate(473.002 139.498)">
      <path id="Path_1" data-name="Path 1" d="M1050.7,514.508a456.249,456.249,0,0,1-37.38-261.87c3.6-23.1,9.44-46.85,24.43-64.79,14.39-17.23,39.35-27.37,60.03-19.29-13.57-29.61-47.76-46.5-80.59-47.33-34.09-.86-66.92,12.5-97.25,28.1s-59.65,33.81-92.21,43.99c-53.5,16.72-111.91,10.34-165.5-6.09s-103.62-42.47-154.62-65.71S403.44,77.488,347.6,72.608s-115.25,7.89-157.24,45.01-61.87,101.28-38.27,152.11c14.25,30.7,42.22,54.32,52.04,86.7,12.32,40.65-7.08,83.96-30.41,119.45s-51.8,69.58-60.47,111.16c-8.01,38.38,2.72,78.02,24.05,111.38a197.345,197.345,0,0,0,35.74,41.61c43.09,37.91,98.77,58.15,154.17,73.13,200.27,54.17,416.13,49.29,613.75-13.88,34.99-11.18,69.95-24.43,99.32-46.48,19.16-14.38,35.83-33.02,46.39-54.35a114.109,114.109,0,0,0,11.13-36.18C1104.44,610.178,1072.97,562.058,1050.7,514.508Z" transform="translate(-26.841 -49.498)" fill="#fa7b62"/>
      <g id="Group_1" data-name="Group 1" opacity="0.17">
        <path id="Path_2" data-name="Path 2" d="M890.75,246.451c9.642-4.2-9.912-6.651-32.1-7.456s-49.021-.76-63.2-3.049c-13.711-2.213-12.7-6.149-13.854-9.715s-6.424-7.222-27.819-8.015c-26.661-.988-70.626,2.814-90.752.532-18.781-2.13-7.617-8.812-35-9.068-15.638-.146-35.785,2.057-53.186,2.588-16.336.5-28.422-.534-36.9-1.924S523.55,207.194,514,205.967c-25.061-3.222-74.091-2.139-117.853,1.991s-81.273,10.9-102.429,17.6-27,13.3-22.072,18.9c3.147,3.574,11.2,6.916,30.732,8.352,36.535,2.686,101.584-1.937,139.337.506,21.042,1.362,30.376,4.739,48.838,6.587,19.834,1.985,48.869,2.091,77.4,2.043,59.4-.1,120.314-.708,182.43-1.827,25.945-.467,53.13-1.075,80.738-3.3s55.766-6.526,61.591-10.555" transform="translate(-26.841 -49.498)" fill="#fff"/>
      </g>
      <path id="Path_3" data-name="Path 3" d="M1099.26,172.048c-.46-1.18-.96-2.35-1.48-3.49.84.33,1.68.69,2.51,1.08Z" transform="translate(-26.841 -49.498)" fill="#6c63ff"/>
      <path id="Path_4" data-name="Path 4" d="M648.745,314.584c-7.669-12.685-16.757-26.228-30.99-30.37-16.482-4.8-33.413,4.732-47.775,14.134a1392.158,1392.158,0,0,0-123.893,91.283l.043.493,92.451-6.376c22.265-1.535,45.3-3.283,64.972-13.816,7.466-4,14.745-9.336,23.206-9.708,10.512-.462,19.677,6.879,26.88,14.549,42.607,45.371,54.937,114.754,102.738,154.616A1517,1517,0,0,0,648.745,314.584Z" transform="translate(-26.841 -49.498)" fill="#f2f2f2"/>
      <path id="Path_5" data-name="Path 5" d="M910.646,699.413c-4.712-5.95-6.637-7.343-11.285-13.348Q842.6,612.649,792.653,534.273q-33.923-53.23-64.483-108.5-14.549-26.278-28.3-52.969-10.67-20.7-20.865-41.638c-1.944-3.988-3.832-7.994-5.711-12.009-4.428-9.442-8.773-18.931-13.439-28.245-5.317-10.616-11.789-21.745-21.553-28.877a29.4,29.4,0,0,0-15.319-5.895c-7.948-.513-15.282,2.769-22.176,6.353-50.439,26.3-97.659,59.276-140.37,96.8A730.782,730.782,0,0,0,346.4,485.878c-1.008,1.439-3.392.064-2.374-1.384q6.009-8.5,12.257-16.813A734.818,734.818,0,0,1,543.88,292.7q18.248-11.826,37.183-22.542c6.362-3.6,12.752-7.16,19.251-10.5,6.371-3.273,13.137-6.215,20.416-6.325,24.77-.385,37.6,27.667,46.405,46.543q4.153,8.911,8.406,17.766,16.075,33.621,33.387,66.628,10.684,20.379,21.837,40.52,34.707,62.718,73.779,122.9C839.05,600.828,873.28,647.774,912.59,697.47,913.671,698.844,911.737,700.806,910.646,699.413Z" transform="translate(-26.841 -49.498)" fill="#e4e4e4"/>
      <path id="Path_6" data-name="Path 6" d="M457.991,345.435c-1.439-1.6-2.869-3.209-4.318-4.813-11.422-12.633-23.679-25.118-39.364-32.361a57.11,57.11,0,0,0-23.927-5.546c-8.562.027-16.932,2.273-24.843,5.418-3.74,1.494-7.4,3.19-11,5-4.116,2.072-8.159,4.281-12.183,6.509q-11.331,6.27-22.368,13.091-21.961,13.572-42.546,29.216-10.671,8.113-20.9,16.758-9.516,8.031-18.646,16.492c-1.3,1.2-3.245-.743-1.944-1.943,1.6-1.494,3.227-2.979,4.85-4.446q6.875-6.215,13.971-12.193,12.939-10.918,26.548-20.993,21.163-15.676,43.783-29.225,11.3-6.765,22.918-12.963c2.338-1.247,4.7-2.466,7.1-3.621a113.114,113.114,0,0,1,16.868-6.866,60.007,60.007,0,0,1,25.476-2.5,66.328,66.328,0,0,1,23.505,8.131c15.4,8.608,27.346,21.919,38.97,34.909C461.108,344.8,459.174,346.755,457.991,345.435Z" transform="translate(-26.841 -49.498)" fill="#e4e4e4"/>
      <path id="Path_7" data-name="Path 7" d="M773.552,476.342l36.9-13.5,18.323-6.7c5.968-2.183,11.921-4.667,18.09-6.23a28.539,28.539,0,0,1,16.374.209,37.737,37.737,0,0,1,12.771,7.917,103.642,103.642,0,0,1,10.475,11.186c3.989,4.794,7.92,9.639,11.868,14.467q24.441,29.891,48.563,60.041t47.92,60.556q23.857,30.48,47.386,61.216,2.882,3.765,5.76,7.534c1.06,1.388,3.449.02,2.375-1.388q-23.7-31.044-47.735-61.835-24.092-30.864-48.516-61.466T904.93,487.412q-6.167-7.558-12.354-15.1c-3.48-4.241-6.92-8.527-10.736-12.474-7.005-7.245-15.758-13.648-26.234-13.822-6.16-.1-12.121,1.852-17.844,3.923-6.17,2.232-12.325,4.506-18.486,6.759l-37.164,13.592-9.291,3.4c-1.649.6-.937,3.262.731,2.652Z" transform="translate(-26.841 -49.498)" fill="#e4e4e4"/>
      <path id="Path_8" data-name="Path 8" d="M409.452,324.157c-18.754-9.639-42.771-7.751-60.005,4.291a855.864,855.864,0,0,1,97.371,22.726C433.535,343.39,423.145,331.2,409.452,324.157Z" transform="translate(-26.841 -49.498)" fill="#f2f2f2"/>
      <path id="Path_9" data-name="Path 9" d="M349.263,328.415l-3.611,2.935c1.221-1.027,2.491-1.99,3.8-2.9Z" transform="translate(-26.841 -49.498)" fill="#f2f2f2"/>
      <path id="Path_10" data-name="Path 10" d="M874.624,476.477c-3.633-4.422-7.56-9.052-12.994-10.848l-5.073.2A575.434,575.434,0,0,0,1009.824,641.05Z" transform="translate(-26.841 -49.498)" fill="#f2f2f2"/>
      <path id="Path_11" data-name="Path 11" d="M1086.67,698.448c-10.56,21.33-27.23,39.97-46.39,54.35-29.37,22.05-64.33,35.3-99.32,46.48-197.62,63.17-413.48,68.05-613.75,13.88-55.4-14.98-111.08-35.22-154.17-73.13a197.347,197.347,0,0,1-35.74-41.61c57.35-31.52,126.86-43.4,193.19-41.95,95.09,2.08,187.96,27.46,282.16,40.59a1102.673,1102.673,0,0,0,334.04-4.6c38.32-6.43,77.98-14.84,115.49-4.66A95.148,95.148,0,0,1,1086.67,698.448Z" transform="translate(-26.841 -49.498)" fill="#3f3d56"/>
      <circle id="Ellipse_1-2" data-name="Ellipse 1" cx="51" cy="51" r="51" transform="translate(128.318)" fill="#ccc"/>
      <path id="Path_12" data-name="Path 12" d="M362.309,97.84c-13.5-14.159-29.173-27.075-47.729-33.9a76.715,76.715,0,0,0-15.986-4.017c-.044-.006-.085,0-.129,0a2.358,2.358,0,0,0-.27-.053,61.539,61.539,0,0,0-22.841,1.379,63.106,63.106,0,0,0-10.635,3.7,93,93,0,0,0-9.979,5.656,64.908,64.908,0,0,1-22.053,8.227A74.188,74.188,0,0,1,220.842,80c-3.447.069-6.7.189-9.964,1.434A23.916,23.916,0,0,0,196.313,97.2,1.551,1.551,0,0,0,197,98.9c.883.633,1.745,1.351,2.673,1.914a8.339,8.339,0,0,0,2.611.712q2.214.467,4.433.907,8.176,1.62,16.42,2.868,16.681,2.525,33.542,3.558a373.481,373.481,0,0,0,67.51-2.029,374.784,374.784,0,0,0,37.456-6.478,1.514,1.514,0,0,0,.662-2.508Z" transform="translate(-26.841 -49.498)" fill="#f0f0f0"/>
      <path id="Path_13" data-name="Path 13" d="M208.58,131.939a76.714,76.714,0,0,0-15.986-4.017c-.044-.006-.085,0-.129,0a2.354,2.354,0,0,0-.27-.053,61.538,61.538,0,0,0-22.841,1.379,63.107,63.107,0,0,0-10.635,3.7,93,93,0,0,0-9.979,5.656,64.908,64.908,0,0,1-22.052,8.227A74.188,74.188,0,0,1,114.843,148c-3.447.069-6.7.189-9.964,1.434A23.916,23.916,0,0,0,90.314,165.2,1.551,1.551,0,0,0,91,166.9c.883.633,1.745,1.351,2.673,1.914a8.339,8.339,0,0,0,2.611.712q2.214.467,4.433.907,8.176,1.62,16.42,2.868,16.681,2.525,33.542,3.558a373.479,373.479,0,0,0,67.51-2.029,374.767,374.767,0,0,0,37.455-6.478,1.514,1.514,0,0,0,.662-2.507C242.812,151.682,227.136,138.765,208.58,131.939Z" transform="translate(-26.841 -49.498)" fill="#f0f0f0"/>
      <path id="Path_14" data-name="Path 14" d="M1047.41,588.142l27.17-20.624,13.24,13.241-44.26,30.283Z" fill="#2f2e41"/>
      <path id="Path_15" data-name="Path 15" d="M1048.92,694.428H955.993l3.259-10.56h0c20.2-7.312,8.853-23.03,28.068-32.637,47-23.5,65.191-93.62,58.309-121.339l30.8-1.3S1118.96,649.375,1048.92,694.428Z" transform="translate(-26.841 -49.498)" fill="#2f2e41"/>
      <path id="Path_16" data-name="Path 16" d="M1128.25,644.789a15.619,15.619,0,0,1-20.183.378l-.061-.05,0-.078a14.958,14.958,0,0,0-.6-3.819,10.693,10.693,0,0,1-.388,2.644l-.078.29-.209-.216c-.18-.186-.355-.375-.519-.561a15.753,15.753,0,0,1-2.4-3.633,45.915,45.915,0,0,0-12.74-15.88,22.3,22.3,0,0,1-2.673-2.572,22.034,22.034,0,0,1,27.67-33.569l.138.081-.072.143a11.48,11.48,0,0,1-2.048,2.954,14.97,14.97,0,0,0,3.154-2.279l.1-.094.113.078a22.131,22.131,0,0,1,4.029,3.587l.129.147a9.836,9.836,0,0,0,7.284,3.361,15.614,15.614,0,0,1,15.12,18.293l-.018.1-.1.03a13.4,13.4,0,0,1-5.457.681,15.221,15.221,0,0,0,4.861,1.217l.217.017-.069.206a15.605,15.605,0,0,1-4.5,6.79l-.059.052-.063.055a15.333,15.333,0,0,0-5.3,10.643,15.734,15.734,0,0,1-5.277,11Z" transform="translate(-26.841 -49.498)" fill="#3f3d56"/>
      <path id="Path_17" data-name="Path 17" d="M1131.09,639.769a15.583,15.583,0,0,1-.176,1.679,15.786,15.786,0,0,0,2.538-7.82c.021-.426.065-.851.125-1.274a14.815,14.815,0,0,0-2.487,7.415Z" transform="translate(-26.841 -49.498)" opacity="0.15"/>
      <path id="Path_18" data-name="Path 18" d="M1136,620.789a15.2,15.2,0,0,0,3.884,1.1,15.616,15.616,0,0,0,1.423-1.736A13.241,13.241,0,0,1,1136,620.789Z" transform="translate(-26.841 -49.498)" opacity="0.15"/>
      <path id="Path_19" data-name="Path 19" d="M1141.73,615.661a15.709,15.709,0,0,1-.111,4.052,15.529,15.529,0,0,0,1.758-3.625l.069-.206-.217-.017a15.09,15.09,0,0,1-1.5-.2Z" transform="translate(-26.841 -49.498)" opacity="0.15"/>
      <path id="Path_20" data-name="Path 20" d="M1140.28,600.84a15.651,15.651,0,0,0-11.462-5.3,9.836,9.836,0,0,1-7.284-3.361l-.129-.147a22.124,22.124,0,0,0-4.029-3.587l-.113-.078-.1.094a14.961,14.961,0,0,1-3.154,2.279,11.482,11.482,0,0,0,2.048-2.954l.072-.142-.138-.081a22.018,22.018,0,0,0-32.621,14.254,22.022,22.022,0,0,1,30.259-8.113l.138.081-.071.143a11.477,11.477,0,0,1-2.048,2.954,14.969,14.969,0,0,0,3.154-2.279l.1-.094.113.078a22.132,22.132,0,0,1,4.029,3.587l.128.147a9.837,9.837,0,0,0,7.284,3.361,15.617,15.617,0,0,1,15.1,12.835,18.936,18.936,0,0,0,2.26-.55l.1-.03.018-.1a15.554,15.554,0,0,0-3.658-12.993Z" transform="translate(-26.841 -49.498)" opacity="0.15"/>
      <path id="Path_21" data-name="Path 21" d="M1173.16,536.541a50.29,50.29,0,0,1-42,49.6l-.253.041-.192-.16a48.188,48.188,0,0,0-10.51-6.672,34.43,34.43,0,0,1,5.566,6.561l.535.8-.965.046c-.833.041-1.66.061-2.459.061A50.711,50.711,0,0,1,1109,584.9c-20.518-5.837-42.55-6.836-65.486-2.967a71.78,71.78,0,0,1-11.9.993,70.948,70.948,0,0,1-22.318-138.286l.488-.161.193.476a36.957,36.957,0,0,1,2.787,11.233,48.194,48.194,0,0,0,1.2-12.471l-.015-.443.43-.108a71.246,71.246,0,0,1,17.24-2.115l.629,0a31.672,31.672,0,0,0,23.616-10.462,50.276,50.276,0,0,1,76.38,2.346l.212.262-.14.307c-2.938,6.475-6.138,11.192-9.958,14.641a49.01,49.01,0,0,0,13.28-9.163l.5-.487.352.6a50.242,50.242,0,0,1,6.837,25.328v.254c0,.09,0,.18,0,.269,0,13.613,5.264,26.516,14.467,35.439a50.66,50.66,0,0,1,15.374,36.151Z" transform="translate(-26.841 -49.498)" fill="#3f3d56"/>
      <g id="Group_2" data-name="Group 2" opacity="0.15">
        <path id="Path_22" data-name="Path 22" d="M1111.69,417.717a35.521,35.521,0,0,1-6.335,7.772,48.885,48.885,0,0,0,9.9-6.186Q1113.5,418.44,1111.69,417.717Z" transform="translate(-26.841 -49.498)"/>
        <path id="Path_23" data-name="Path 23" d="M1140.79,477.733a50.485,50.485,0,0,1,7.23,8.808,51.393,51.393,0,0,1-4.7-21.59c0-.09,0-.18,0-.269v-.254a50.243,50.243,0,0,0-6.84-25.327l-.352-.6-.5.487a49.118,49.118,0,0,1-9.17,6.983A48.972,48.972,0,0,0,1140.79,477.733Z" transform="translate(-26.841 -49.498)"/>
        <path id="Path_24" data-name="Path 24" d="M1126.33,441.771v.254c0,.09,0,.18,0,.269,0,.494.009.986.023,1.477a52.368,52.368,0,0,0,5.956-10.267l.14-.307-.212-.262a50.687,50.687,0,0,0-9.1-8.8A50.356,50.356,0,0,1,1126.33,441.771Z" transform="translate(-26.841 -49.498)"/>
        <path id="Path_25" data-name="Path 25" d="M1157.79,500.39a45.462,45.462,0,0,1-6.408-7.8,50.23,50.23,0,0,1-37.218,70.89l-.248.04-.192-.16a48.186,48.186,0,0,0-10.51-6.672,34.417,34.417,0,0,1,5.566,6.56l.535.8-.965.046c-.833.041-1.66.061-2.459.061a50.71,50.71,0,0,1-13.884-1.925c-20.518-5.838-42.55-6.836-65.486-2.967a71.768,71.768,0,0,1-11.9.993A70.623,70.623,0,0,1,967.5,542.3a71.011,71.011,0,0,0,64.113,40.626,71.785,71.785,0,0,0,11.905-.993c22.932-3.868,44.965-2.87,65.482,2.968a50.716,50.716,0,0,0,13.885,1.925c.8,0,1.626-.02,2.459-.061l.965-.046-.535-.8a34.424,34.424,0,0,0-5.566-6.56,48.188,48.188,0,0,1,10.51,6.672l.192.16.248-.041a50.254,50.254,0,0,0,26.633-85.75Z" transform="translate(-26.841 -49.498)"/>
      </g>
      <path id="Path_26" data-name="Path 26" d="M134.035,560.973,97.223,533.025,79.28,550.968l59.97,41.039Z" fill="#2f2e41"/>
      <path id="Path_27" data-name="Path 27" d="M195.21,687.428H321.137l-4.417-14.311h0c-27.373-9.909-12-31.209-38.036-44.228C215,597.045,190.339,502.019,199.665,464.455l-41.736-1.765S100.291,626.374,195.21,687.428Z" transform="translate(-26.841 -49.498)" fill="#2f2e41"/>
      <path id="Path_28" data-name="Path 28" d="M80.554,605.252a20.779,20.779,0,0,0-7.178-14.423l-.085-.075-.08-.07a21.145,21.145,0,0,1-6.1-9.2l-.093-.279.293-.023a20.626,20.626,0,0,0,6.587-1.65,18.157,18.157,0,0,1-7.4-.923l-.136-.041-.024-.14a21.16,21.16,0,0,1,20.489-24.79,13.33,13.33,0,0,0,9.871-4.555l.174-.2a29.99,29.99,0,0,1,5.46-4.86l.154-.106.136.128a20.284,20.284,0,0,0,4.274,3.088,15.554,15.554,0,0,1-2.775-4l-.1-.193.187-.109a29.86,29.86,0,0,1,37.5,45.492,30.212,30.212,0,0,1-3.622,3.485,62.224,62.224,0,0,0-17.265,21.52,21.346,21.346,0,0,1-3.251,4.923c-.222.252-.458.508-.7.76l-.283.292-.105-.393a14.487,14.487,0,0,1-.526-3.583,20.28,20.28,0,0,0-.813,5.176l0,.105-.082.067a21.15,21.15,0,0,1-34.5-15.419Z" transform="translate(-26.841 -49.498)" fill="#3f3d56"/>
      <path id="Path_29" data-name="Path 29" d="M83.853,613.357a21.107,21.107,0,0,0,.238,2.275,21.392,21.392,0,0,1-3.439-10.6c-.028-.578-.089-1.153-.17-1.726A20.076,20.076,0,0,1,83.853,613.357Z" transform="translate(-26.841 -49.498)" opacity="0.15"/>
      <path id="Path_30" data-name="Path 30" d="M77.193,587.635a20.6,20.6,0,0,1-5.264,1.488A21.187,21.187,0,0,1,70,586.77a17.948,17.948,0,0,0,7.192.865Z" transform="translate(-26.841 -49.498)" opacity="0.15"/>
      <path id="Path_31" data-name="Path 31" d="M69.436,580.686a21.289,21.289,0,0,0,.151,5.491,21.045,21.045,0,0,1-2.382-4.912l-.093-.279.293-.023a20.457,20.457,0,0,0,2.031-.276Z" transform="translate(-26.841 -49.498)" opacity="0.15"/>
      <path id="Path_32" data-name="Path 32" d="M71.394,560.6a21.209,21.209,0,0,1,15.532-7.182,13.33,13.33,0,0,0,9.871-4.555l.174-.2a29.986,29.986,0,0,1,5.46-4.861l.154-.106.136.128a20.284,20.284,0,0,0,4.274,3.088,15.555,15.555,0,0,1-2.775-4l-.1-.193.187-.109a29.838,29.838,0,0,1,44.207,19.316,29.843,29.843,0,0,0-41.006-10.994l-.187.109.1.193a15.554,15.554,0,0,0,2.775,4,20.281,20.281,0,0,1-4.274-3.088l-.136-.128-.154.106a29.99,29.99,0,0,0-5.46,4.861l-.174.2a13.33,13.33,0,0,1-9.871,4.555A21.163,21.163,0,0,0,69.66,579.135a25.644,25.644,0,0,1-3.063-.745l-.136-.041-.024-.14A21.078,21.078,0,0,1,71.394,560.6Z" transform="translate(-26.841 -49.498)" opacity="0.15"/>
      <path id="Path_33" data-name="Path 33" d="M47.674,424.475c12.471-12.093,19.6-29.578,19.6-48.026,0-.121,0-.244,0-.365v-.344a68.086,68.086,0,0,1,9.269-34.323l.477-.819.68.66a66.421,66.421,0,0,0,18,12.417c-5.177-4.675-9.514-11.067-13.5-19.841l-.19-.416.287-.355a68.132,68.132,0,0,1,103.507-3.179,42.921,42.921,0,0,0,32,14.178l.853,0a96.586,96.586,0,0,1,23.378,2.869l.569.143-.021.6a65.314,65.314,0,0,0,1.623,16.9,50.082,50.082,0,0,1,3.777-15.223l.261-.645.661.219a96.146,96.146,0,0,1-30.248,187.4,97.3,97.3,0,0,1-16.136-1.346c-31.073-5.241-60.931-3.888-88.735,4.022A68.726,68.726,0,0,1,94.979,541.6c-1.083,0-2.2-.027-3.333-.082l-1.308-.063.726-1.091a46.649,46.649,0,0,1,7.543-8.891,65.3,65.3,0,0,0-14.243,9.041l-.26.217-.337-.055A68.1,68.1,0,0,1,47.674,424.475Z" transform="translate(-26.841 -49.498)" fill="#3f3d56"/>
      <g id="Group_3" data-name="Group 3" opacity="0.15">
        <path id="Path_34" data-name="Path 34" d="M110.143,312.44a48.134,48.134,0,0,0,8.585,10.532,66.252,66.252,0,0,1-13.414-8.384Q107.686,313.42,110.143,312.44Z" transform="translate(-26.841 -49.498)"/>
        <path id="Path_35" data-name="Path 35" d="M70.7,393.772a68.412,68.412,0,0,0-9.8,11.936,69.646,69.646,0,0,0,6.375-29.258c0-.121,0-.244,0-.365v-.344a68.087,68.087,0,0,1,9.269-34.323l.478-.819.68.66a66.575,66.575,0,0,0,12.427,9.463C88.972,367.31,82.046,382.772,70.7,393.772Z" transform="translate(-26.841 -49.498)"/>
        <path id="Path_36" data-name="Path 36" d="M90.305,345.037v.344c0,.121,0,.244,0,.365,0,.669-.012,1.336-.031,2a70.962,70.962,0,0,1-8.071-13.914l-.19-.416.287-.355a68.691,68.691,0,0,1,12.327-11.922A68.241,68.241,0,0,0,90.305,345.037Z" transform="translate(-26.841 -49.498)"/>
        <path id="Path_37" data-name="Path 37" d="M47.674,424.475a61.605,61.605,0,0,0,8.684-10.566,68.069,68.069,0,0,0,50.436,96.067l.337.055.26-.217a65.3,65.3,0,0,1,14.243-9.041,46.649,46.649,0,0,0-7.543,8.891l-.726,1.09,1.308.063c1.129.055,2.25.082,3.333.082a68.729,68.729,0,0,0,18.816-2.609c27.8-7.911,57.662-9.263,88.744-4.021a97.275,97.275,0,0,0,16.128,1.346,95.706,95.706,0,0,0,63.855-24.351,96.232,96.232,0,0,1-86.883,55.055,97.3,97.3,0,0,1-16.135-1.346c-31.075-5.241-60.933-3.889-88.738,4.022A68.727,68.727,0,0,1,94.979,541.6c-1.082,0-2.2-.027-3.333-.082l-1.307-.063.726-1.091a46.648,46.648,0,0,1,7.543-8.89,65.3,65.3,0,0,0-14.243,9.041l-.26.217-.337-.055A68.1,68.1,0,0,1,47.675,424.475Z" transform="translate(-26.841 -49.498)"/>
      </g>
      <circle id="Ellipse_2" data-name="Ellipse 2" cx="5" cy="5" r="5" transform="translate(455.318 180)" fill="#fff"/>
      <circle id="Ellipse_3" data-name="Ellipse 3" cx="3" cy="3" r="3" transform="translate(831.318 302)" fill="#fff"/>
      <circle id="Ellipse_4" data-name="Ellipse 4" cx="3" cy="3" r="3" transform="translate(889.318 167)" fill="#fff"/>
      <circle id="Ellipse_5" data-name="Ellipse 5" cx="3" cy="3" r="3" transform="translate(352.318 77)" fill="#fff"/>
      <circle id="Ellipse_6" data-name="Ellipse 6" cx="3" cy="3" r="3" transform="translate(322.318 198)" fill="#fff"/>
      <circle id="Ellipse_7" data-name="Ellipse 7" cx="3" cy="3" r="3" transform="translate(176.318 167)" fill="#fff"/>
      <circle id="Ellipse_8" data-name="Ellipse 8" cx="3" cy="3" r="3" transform="translate(693.318 192)" fill="#fff"/>
      <circle id="Ellipse_9" data-name="Ellipse 9" cx="3" cy="3" r="3" transform="translate(1000.32 95)" fill="#fff"/>
      <path id="Path_38" data-name="Path 38" d="M328.959,413.563c-3.8-7.035-4.33-16.255.335-22.749a36.839,36.839,0,0,0,14.675,20.6c2.772,1.887,6.051,3.7,7,6.914a8.235,8.235,0,0,1-.859,6.044,24.457,24.457,0,0,1-3.8,4.955l-.134.5C339.3,425.754,332.759,420.6,328.959,413.563Z" transform="translate(-26.841 -49.498)" fill="#3f3d56"/>
      <path id="Path_39" data-name="Path 39" d="M910.959,612.563c-3.8-7.035-4.33-16.255.335-22.749a36.839,36.839,0,0,0,14.675,20.6c2.772,1.887,6.051,3.7,7,6.914a8.235,8.235,0,0,1-.859,6.044,24.457,24.457,0,0,1-3.795,4.955l-.134.5C921.3,624.754,914.759,619.6,910.959,612.563Z" transform="translate(-26.841 -49.498)" fill="#3f3d56"/>
      <path id="Path_40" data-name="Path 40" d="M591.959,449.563c-3.8-7.035-4.33-16.255.335-22.749a36.838,36.838,0,0,0,14.675,20.6c2.772,1.887,6.051,3.7,7,6.914a8.235,8.235,0,0,1-.859,6.044,24.456,24.456,0,0,1-3.8,4.955l-.134.5C602.3,461.754,595.759,456.6,591.959,449.563Z" transform="translate(-26.841 -49.498)" fill="#3f3d56"/>
      <path id="Path_41" data-name="Path 41" d="M287.959,565.563c-3.8-7.035-4.33-16.255.335-22.749a36.838,36.838,0,0,0,14.675,20.6c2.772,1.887,6.051,3.7,7,6.914a8.235,8.235,0,0,1-.859,6.044,24.458,24.458,0,0,1-3.8,4.955l-.134.5C298.3,577.754,291.759,572.6,287.959,565.563Z" transform="translate(-26.841 -49.498)" fill="#3f3d56"/>
      <path id="Path_42" data-name="Path 42" d="M249.959,651.563c-3.8-7.035-4.33-16.255.335-22.749a36.838,36.838,0,0,0,14.675,20.6c2.772,1.887,6.051,3.7,7,6.914a8.235,8.235,0,0,1-.859,6.044,24.459,24.459,0,0,1-3.8,4.955l-.134.5C260.3,663.754,253.759,658.6,249.959,651.563Z" transform="translate(-26.841 -49.498)" fill="#3f3d56"/>
      <rect id="Rectangle_1" data-name="Rectangle 1" width="11" height="589" transform="translate(843.318 68)" fill="#3f3d56"/>
      <rect id="Rectangle_2" data-name="Rectangle 2" width="72" height="72" rx="36" transform="translate(813.318 20)" fill="#ff6582"/>
      <path id="Path_43" data-name="Path 43" d="M418.643,424.138c0,11.478,12.516,21.678,23.993,21.678s17.571-10.2,17.571-21.678a20.782,20.782,0,1,0-41.565,0Z" transform="translate(-26.841 -49.498)" fill="#2f2e41"/>
      <path id="Path_44" data-name="Path 44" d="M398.471,484.489l38.6-1.484,2.227-40.08H394.76Z" fill="#ffb8b8"/>
      <path id="Path_45" data-name="Path 45" d="M400.814,561.493a6.182,6.182,0,0,0-.365-9.473l7.007-20.822-11.038,2.917-4.962,19.326a6.216,6.216,0,0,0,9.357,8.052Z" transform="translate(-26.841 -49.498)" fill="#ffb6b6"/>
      <circle id="Ellipse_10" data-name="Ellipse 10" cx="14.698" cy="14.698" r="14.698" transform="translate(401.06 366.927)" fill="#ffb8b8"/>
      <path id="Path_46" data-name="Path 46" d="M442.96,429.644l-10.733-.284a1.5,1.5,0,0,1-1.28-.787l-3.588-6.655a1.5,1.5,0,0,1,.4-1.891L441.8,409.047a1.5,1.5,0,0,1,1.256-.28l11.342,2.584a1.5,1.5,0,0,1,1.107,1.043l4.441,15.295a1.5,1.5,0,0,1-1.514,1.916l-5.56-.278a1.507,1.507,0,0,1-1.347-1.028l-.231-.7a.173.173,0,0,0-.338.054,1.5,1.5,0,0,1-1.573,1.5l-1.841-.092a1.5,1.5,0,0,1-1.4-1.2l-.794-3.993a.173.173,0,0,0-.342.014l-.519,4.442A1.492,1.492,0,0,1,443,429.644Z" transform="translate(-26.841 -49.498)" fill="#2f2e41"/>
      <path id="Path_47" data-name="Path 47" d="M432.251,449.581l19,.253,6.185,7.853,9.957,2.348,2.588,14.954c1.294,7.476-.08,12.211-3.881,18.777h0l-.455,12.918.5.914a2.094,2.094,0,0,1-.631,2.723h0a4.277,4.277,0,0,1,.118,2.815l-.245.81s-.708,5.663-40.832-.293a3.956,3.956,0,0,1-3.343-3.4h0a2.954,2.954,0,0,1-.547-3.4l.082-.163-.412-.485a3.177,3.177,0,0,1-.161-3.907h0l-5.767-41.252,11.912-3.71Z" transform="translate(-26.841 -49.498)" fill="#2f2e41"/>
      <path id="Path_48" data-name="Path 48" d="M419.169,464.993l-4.757-3.948s-4.23,1.25-7.183,9.581-13.09,71.527-13.09,71.527l11.876-5.938,16.839-46.431Z" transform="translate(-26.841 -49.498)" fill="#2f2e41"/>
      <path id="Path_49" data-name="Path 49" d="M524.819,532.274a6.182,6.182,0,0,1-7.091-6.291l-20.542-7.792,9.257-6.682,18.087,8.424a6.216,6.216,0,0,1,.288,12.342Z" transform="translate(-26.841 -49.498)" fill="#ffb6b6"/>
      <path id="Path_50" data-name="Path 50" d="M461.881,464.633l3.225-5.274s4.407-.185,9.9,6.744c2.814,3.552,21.049,34.017,21.049,34.017l16.863,14.056-13.806,4.931-16.272-6.9-18.244-30.078Z" transform="translate(-26.841 -49.498)" fill="#2f2e41"/>
      <path id="Path_51" data-name="Path 51" d="M435.555,666.81h9.184l4.369-35.425H435.553Z" fill="#ffb6b6"/>
      <path id="Path_52" data-name="Path 52" d="M355.157,661.1l8.887,2.316,13.164-33.177-13.117-3.419Z" fill="#ffb6b6"/>
      <path id="Path_53" data-name="Path 53" d="M460.118,711.778l14.518-.867v6.22l13.8,9.533a3.885,3.885,0,0,1-2.208,7.083H468.947l-2.979-6.153-1.163,6.153h-6.517Z" transform="translate(-26.841 -49.498)" fill="#2f2e41"/>
      <path id="Path_54" data-name="Path 54" d="M380.131,705.429l14.267,2.823-1.569,6.019,10.952,12.706a3.885,3.885,0,0,1-3.923,6.3l-16.725-4.361-1.331-6.705-2.678,5.66-6.306-1.644Z" transform="translate(-26.841 -49.498)" fill="#2f2e41"/>
      <path id="Path_55" data-name="Path 55" d="M383.125,688.319l26.921-55.33,2.114-65.491c-5.827-10.821,11.332-34.693,11.332-34.693V523.56l41.918,7.908h0a201.215,201.215,0,0,1,12.262,73.06l-1.689,89.518h.53a3.315,3.315,0,0,1,0,6.631H459.935a3.315,3.315,0,1,1,0-6.631h.427l-11.9-113.883-13.836,56.2-33.438,51.744a3.307,3.307,0,0,1-.265,6.6H384.347a3.312,3.312,0,0,1-1.223-6.391Z" transform="translate(-26.841 -49.498)" fill="#2f2e41"/>
      <path id="Path_56" data-name="Path 56" d="M382.758,426.3c6.194-6.059,10.093-14.028,15.223-21.011s12.355-13.382,21.011-13.77a13.038,13.038,0,0,1,8.166,2.129,8.305,8.305,0,0,1,3.6,7.367c.914-2.567,5-3.145,6.588-.933s-.257,5.9-2.981,5.948l-.267-1.057a18.249,18.249,0,0,1-11.8,7.836,2.978,2.978,0,0,1-3.355-3.854c-9.354,1.856-6.384,19.3-11.945,27.049s-21.453,7-30.829,8.735c-9.055,1.68-17.859-3.348-25.7-8.178A38.271,38.271,0,0,0,382.758,426.3Z" transform="translate(-26.841 -49.498)" fill="#2f2e41"/>
      <path id="Path_57" data-name="Path 57" d="M732.69,636.9l-28.217-12.449v-10.7l10.056-.057a7.469,7.469,0,0,0,7.044-5.107l7.064-21.193a7.469,7.469,0,0,0-7.086-9.831H704.473v-9.959h21.44a7.469,7.469,0,0,0,7.279-5.8l4.865-21.163a7.469,7.469,0,0,0-7.279-9.143H704.473v-2.49a4.979,4.979,0,0,0-9.959,0v2.49H518.157v-2.49a4.979,4.979,0,0,0-9.959,0v2.49H487.287a7.469,7.469,0,0,0-7.279,9.143l4.865,21.163a7.469,7.469,0,0,0,7.279,5.8H508.2v9.959H496.513a7.469,7.469,0,0,0-7.109,9.76l7.21,22.377a7.469,7.469,0,0,0,7.151,5.178l4.432-.025v9.6L485.375,636.9a7.469,7.469,0,0,0-7.469,7.469h0a7.469,7.469,0,0,0,7.469,7.469H508.2v54.774a4.979,4.979,0,0,0,9.959,0V651.842H694.514v54.774a4.98,4.98,0,0,0,9.959,0V651.842H732.69a7.469,7.469,0,0,0,7.469-7.469h0a7.469,7.469,0,0,0-7.469-7.469Zm-214.533-69.3H694.514v9.959H518.157Zm0,56.849V614.8l176.357-.991v10.646Z" transform="translate(-26.841 -49.498)" fill="#3f3d56"/>
    </g>
  </g>
</svg>
